<?xml version="1.0" encoding="UTF-8" standalone="no"?>
<!-- Uploaded to: SVG Repo, www.svgrepo.com, Generator: SVG Repo Mixer Tools -->

<svg
   fill="#000000"
   height="220"
   width="1200"
   version="1.1"
   id="Layer_1"
   viewBox="0 0 768 140.8"
   xml:space="preserve"
   sodipodi:docname="programmer-svgrepo-com.svg"
   inkscape:version="1.3.2 (091e20ef0f, 2023-11-25, custom)"
   xmlns:inkscape="http://www.inkscape.org/namespaces/inkscape"
   xmlns:sodipodi="http://sodipodi.sourceforge.net/DTD/sodipodi-0.dtd"
   xmlns="http://www.w3.org/2000/svg"
   xmlns:svg="http://www.w3.org/2000/svg"><defs
   id="defs10">
	

		
	</defs><sodipodi:namedview
   id="namedview10"
   pagecolor="#ffffff"
   bordercolor="#666666"
   borderopacity="1.0"
   inkscape:showpageshadow="2"
   inkscape:pageopacity="0.0"
   inkscape:pagecheckerboard="0"
   inkscape:deskcolor="#d1d1d1"
   inkscape:zoom="0.5"
   inkscape:cx="564"
   inkscape:cy="226"
   inkscape:window-width="956"
   inkscape:window-height="254"
   inkscape:window-x="960"
   inkscape:window-y="24"
   inkscape:window-maximized="1"
   inkscape:current-layer="g8" />
<g
   id="g1"><g
     id="g8"
     style="stroke-width:0.512001;stroke-dasharray:none"
     transform="matrix(0.24999951,0,0,0.24999951,192.22219,3.84)">
			
			
			
			
			
			
			
			<g
   id="g2"
   transform="matrix(0.85000001,0,0,0.85000001,549.51274,48.640094)"><path
     d="M 438.187,101.427 339.872,3.124 C 337.872,1.124 335.16,0 332.331,0 H 103.978 C 85.622,0 70.687,14.934 70.687,33.291 V 478.71 c 0,18.356 14.934,33.291 33.292,33.291 h 304.042 c 18.357,0 33.292,-14.934 33.292,-33.291 V 108.97 c -0.002,-2.829 -1.125,-5.543 -3.126,-7.543 z m -33.294,-3.122 -0.002,-0.002 H 342.998 V 36.417 l -0.003,-0.004 z m 15.085,380.404 c 0,6.594 -5.364,11.957 -11.957,11.957 H 103.978 c -6.594,0 -11.958,-5.363 -11.958,-11.957 V 33.291 c 0.001,-6.594 5.365,-11.957 11.958,-11.957 h 217.685 v 87.636 c 0,5.89 4.777,10.667 10.667,10.667 h 87.648 z"
     id="path1"
     style="fill:#000000;fill-opacity:1;stroke-width:1.28;stroke-dasharray:none" /><path
     d="m 308.683,161.287 c -3.828,4.477 -3.302,11.211 1.177,15.039 l 53.481,45.723 -53.481,45.723 c -4.478,3.828 -5.004,10.561 -1.177,15.039 2.11,2.467 5.101,3.736 8.112,3.736 2.452,0 4.916,-0.841 6.926,-2.559 l 62.963,-53.83 c 2.371,-2.026 3.735,-4.989 3.735,-8.108 0,-3.119 -1.364,-6.081 -3.734,-8.108 l -62.963,-53.83 c -4.476,-3.83 -11.212,-3.303 -15.039,1.175 z"
     id="path2"
     style="fill:#000000;fill-opacity:1;stroke-width:1.28;stroke-dasharray:none" /><path
     d="m 195.204,286.546 c 3.01,0 6.003,-1.267 8.112,-3.735 3.828,-4.477 3.302,-11.211 -1.177,-15.039 l -53.481,-45.723 53.481,-45.723 c 4.478,-3.828 5.004,-10.561 1.177,-15.039 -3.827,-4.478 -10.562,-5.006 -15.039,-1.177 l -62.963,53.83 c -2.371,2.026 -3.735,4.989 -3.735,8.108 0,3.119 1.364,6.081 3.735,8.108 l 62.963,53.83 c 2.01,1.72 4.474,2.56 6.927,2.56 z"
     id="path3"
     style="fill:#000000;fill-opacity:1;stroke-width:1.28;stroke-dasharray:none" /><path
     d="m 229.031,304.897 c 1.096,0.357 2.21,0.527 3.305,0.527 4.494,0 8.674,-2.864 10.141,-7.367 L 289.81,152.648 c 1.824,-5.602 -1.239,-11.622 -6.841,-13.444 -5.602,-1.825 -11.622,1.239 -13.444,6.841 l -47.333,145.409 c -1.826,5.6 1.238,11.62 6.839,13.443 z"
     id="path4"
     style="fill:#000000;fill-opacity:1;stroke-width:1.28;stroke-dasharray:none" /><path
     d="m 306.198,346.416 c 0,-5.89 -4.777,-10.667 -10.667,-10.667 H 187.733 c -5.89,0 -10.667,4.776 -10.667,10.667 0,5.891 4.777,10.667 10.667,10.667 h 107.798 c 5.89,0 10.667,-4.777 10.667,-10.667 z"
     id="path5"
     style="fill:#000000;fill-opacity:1;stroke-width:1.28;stroke-dasharray:none" /><path
     d="M 146.933,335.749 H 145.6 c -5.89,0 -10.667,4.776 -10.667,10.667 0,5.891 4.777,10.667 10.667,10.667 h 1.333 c 5.89,0 10.667,-4.777 10.667,-10.667 0,-5.89 -4.777,-10.667 -10.667,-10.667 z"
     id="path6"
     style="fill:#000000;fill-opacity:1;stroke-width:1.28;stroke-dasharray:none" /><path
     d="M 366.399,383.749 H 207.466 c -5.89,0 -10.667,4.776 -10.667,10.667 0,5.891 4.777,10.667 10.667,10.667 h 158.933 c 5.89,0 10.667,-4.777 10.667,-10.667 0,-5.89 -4.776,-10.667 -10.667,-10.667 z"
     id="path7"
     style="fill:#000000;fill-opacity:1;stroke-width:1.28;stroke-dasharray:none" /><path
     d="m 302.399,431.749 h -94.933 c -5.89,0 -10.667,4.776 -10.667,10.667 0,5.891 4.777,10.667 10.667,10.667 h 94.933 c 5.89,0 10.667,-4.777 10.667,-10.667 0,-5.89 -4.776,-10.667 -10.667,-10.667 z"
     id="path8"
     style="fill:#000000;fill-opacity:1;stroke-width:1.28;stroke-dasharray:none" /></g>
		<circle
   style="fill:none;fill-opacity:1;fill-rule:evenodd;stroke-width:1.28;stroke-linecap:round;stroke-dasharray:none;paint-order:fill markers stroke"
   id="path9"
   cx="107.00922"
   cy="252.70731"
   r="205.91069" /></g></g>
</svg>
