<?xml version="1.0" encoding="UTF-8" standalone="no"?>
<!-- Uploaded to: SVG Repo, www.svgrepo.com, Generator: SVG Repo Mixer Tools -->

<svg
   width="1200"
   height="220"
   viewBox="0 0 36 6.6"
   fill="none"
   version="1.1"
   id="svg1"
   sodipodi:docname="book-svgrepo-com.svg"
   inkscape:version="1.3.2 (091e20ef0f, 2023-11-25, custom)"
   xmlns:inkscape="http://www.inkscape.org/namespaces/inkscape"
   xmlns:sodipodi="http://sodipodi.sourceforge.net/DTD/sodipodi-0.dtd"
   xmlns="http://www.w3.org/2000/svg"
   xmlns:svg="http://www.w3.org/2000/svg">
  <defs
     id="defs1" />
  <sodipodi:namedview
     id="namedview1"
     pagecolor="#ffffff"
     bordercolor="#666666"
     borderopacity="1.0"
     inkscape:showpageshadow="2"
     inkscape:pageopacity="0.0"
     inkscape:pagecheckerboard="0"
     inkscape:deskcolor="#d1d1d1"
     inkscape:zoom="0.36857941"
     inkscape:cx="385.26297"
     inkscape:cy="238.75452"
     inkscape:window-width="956"
     inkscape:window-height="254"
     inkscape:window-x="960"
     inkscape:window-y="282"
     inkscape:window-maximized="1"
     inkscape:current-layer="svg1" />
  <path
     d="M 15.852709,5.1789554 V 1.7432868 c 0,-0.3006478 0,-0.4509743 0.05851,-0.5658062 0.05147,-0.1010113 0.133589,-0.18313464 0.2346,-0.23459984 0.114832,-0.058511 0.265158,-0.058511 0.565806,-0.058511 h 2.576751 c 0.300648,0 0.450986,0 0.565812,0.058511 0.101004,0.051466 0.183138,0.13358854 0.234592,0.23459984 0.05851,0.1148319 0.05851,0.2651585 0.05851,0.5658063 v 2.8988453 h -3.75776 c -0.296479,0 -0.536823,0.2403358 -0.536822,0.5368232 z m 0,0 c 0,0.2964875 0.240343,0.5368233 0.536823,0.5368233 h 3.757762 M 17.194767,1.9580161 h 1.61047 m -1.61047,1.0736464 h 1.61047 m 1.073646,1.6104697 v 1.0736465"
     stroke="#000000"
     stroke-width="0.59993"
     stroke-linecap="round"
     stroke-linejoin="round"
     id="path1"
     style="fill:none;fill-opacity:1;stroke-width:0.268443;stroke-dasharray:none" />
</svg>
